<svg width="30" height="31" viewBox="0 0 30 31" fill="none" xmlns="http://www.w3.org/2000/svg">
<path d="M23.7091 18.7461C23.0949 18.1066 22.3541 17.7647 21.569 17.7647C20.7902 17.7647 20.0431 18.1003 19.4036 18.7398L17.4027 20.7343C17.2381 20.6456 17.0735 20.5633 16.9152 20.481C16.6873 20.367 16.472 20.2594 16.2884 20.1454C14.4142 18.9551 12.7109 17.4038 11.0774 15.3967C10.2859 14.3962 9.75404 13.5541 9.36781 12.6993C9.88701 12.2245 10.3682 11.7306 10.8368 11.2557C11.0141 11.0784 11.1913 10.8948 11.3686 10.7175C12.6983 9.38787 12.6983 7.66564 11.3686 6.33599L9.64007 4.60743C9.44379 4.41115 9.24117 4.20853 9.05122 4.00592C8.67132 3.61335 8.27242 3.20812 7.86086 2.82822C7.24669 2.22038 6.51221 1.89746 5.73974 1.89746C4.96727 1.89746 4.22013 2.22038 3.58696 2.82822C3.58063 2.83455 3.58063 2.83455 3.5743 2.84088L1.42152 5.01266C0.61106 5.82312 0.148846 6.81086 0.0475384 7.9569C-0.104423 9.80576 0.440104 11.528 0.857997 12.655C1.88373 15.422 3.41601 17.9863 5.70175 20.7343C8.47504 24.0458 11.8118 26.6608 15.6235 28.5033C17.0798 29.1934 19.0237 30.0102 21.1954 30.1495C21.3284 30.1559 21.4677 30.1622 21.5943 30.1622C23.057 30.1622 24.2853 29.6367 25.2477 28.5919C25.2541 28.5793 25.2667 28.5729 25.2731 28.5603C25.6023 28.1614 25.9822 27.8005 26.3811 27.4142C26.6534 27.1546 26.932 26.8824 27.2042 26.5974C27.8311 25.9453 28.1603 25.1855 28.1603 24.4067C28.1603 23.6215 27.8247 22.8681 27.1852 22.2349L23.7091 18.7461ZM25.9759 25.4134C25.9695 25.4134 25.9695 25.4197 25.9759 25.4134C25.7289 25.6793 25.4757 25.92 25.2034 26.1859C24.7918 26.5784 24.374 26.99 23.9814 27.4522C23.3419 28.136 22.5884 28.459 21.6007 28.459C21.5057 28.459 21.4044 28.459 21.3094 28.4526C19.4289 28.3323 17.6813 27.5979 16.3707 26.971C12.7869 25.2361 9.64007 22.7731 7.02508 19.6516C4.86597 17.0492 3.42234 14.6432 2.46625 12.0598C1.8774 10.4833 1.66212 9.2549 1.7571 8.0962C1.82042 7.35539 2.10534 6.74122 2.63087 6.21568L4.78999 4.05657C5.10024 3.76531 5.42949 3.60702 5.75241 3.60702C6.1513 3.60702 6.47422 3.84763 6.67683 4.05024C6.68317 4.05657 6.6895 4.0629 6.69583 4.06924C7.08206 4.43014 7.4493 4.80371 7.83554 5.20261C8.03182 5.40523 8.23443 5.60784 8.43705 5.81679L10.1656 7.54534C10.8368 8.2165 10.8368 8.83701 10.1656 9.50817C9.98198 9.69179 9.8047 9.87541 9.62108 10.0527C9.08921 10.5972 8.58268 11.1038 8.03182 11.5976C8.01916 11.6103 8.00649 11.6166 8.00016 11.6293C7.45563 12.1738 7.55694 12.7057 7.67091 13.0666C7.67724 13.0856 7.68358 13.1046 7.68991 13.1236C8.13946 14.2126 8.77263 15.2384 9.73505 16.4604L9.74138 16.4667C11.4889 18.6195 13.3315 20.2974 15.3639 21.5827C15.6235 21.7474 15.8895 21.8803 16.1427 22.007C16.3707 22.1209 16.586 22.2286 16.7696 22.3425C16.7949 22.3552 16.8202 22.3742 16.8456 22.3869C17.0608 22.4945 17.2634 22.5452 17.4724 22.5452C17.9979 22.5452 18.3272 22.2159 18.4348 22.1083L20.6003 19.9428C20.8155 19.7275 21.1574 19.4679 21.5563 19.4679C21.9489 19.4679 22.2718 19.7149 22.4681 19.9302C22.4744 19.9365 22.4744 19.9365 22.4808 19.9428L25.9695 23.4316C26.6217 24.0774 26.6217 24.7423 25.9759 25.4134Z" fill="black"/>
<path d="M16.2124 7.29822C17.8713 7.57681 19.3782 8.36194 20.5813 9.56497C21.7843 10.768 22.5631 12.2749 22.848 13.9338C22.9177 14.3517 23.2786 14.643 23.6901 14.643C23.7408 14.643 23.7851 14.6367 23.8358 14.6303C24.3043 14.5544 24.6146 14.1111 24.5386 13.6426C24.1967 11.6354 23.2469 9.80557 21.7969 8.35561C20.347 6.90565 18.5171 5.95589 16.51 5.61398C16.0414 5.538 15.6045 5.84826 15.5222 6.31047C15.4399 6.77268 15.7438 7.22224 16.2124 7.29822Z" fill="black"/>
<path d="M29.9644 13.3957C29.4009 10.0906 27.8433 7.08303 25.4499 4.68965C23.0565 2.29626 20.049 0.738663 16.7438 0.175141C16.2816 0.0928288 15.8447 0.409414 15.7624 0.871629C15.6864 1.34017 15.9967 1.77706 16.4652 1.85937C19.4158 2.35958 22.1068 3.75889 24.2469 5.89267C26.387 8.03279 27.78 10.7238 28.2802 13.6743C28.3498 14.0922 28.7108 14.3835 29.1223 14.3835C29.173 14.3835 29.2173 14.3772 29.2679 14.3708C29.7302 14.3012 30.0467 13.858 29.9644 13.3957Z" fill="black"/>
</svg>
