<?xml version="1.0" encoding="UTF-8"?>
<svg id="Layer_1" data-name="Layer 1" xmlns="http://www.w3.org/2000/svg" viewBox="0 0 524 192.57">
  <defs>
    <style>
      .cls-1 {
        fill: #fff;
      }

      .cls-2 {
        opacity: .5;
      }

      .cls-3 {
        stroke: #428fec;
        stroke-width: 3px;
      }

      .cls-3, .cls-4 {
        fill: none;
      }

      .cls-5 {
        fill: #242424;
      }

      .cls-4 {
        stroke: #f2f5f5;
        stroke-width: .8px;
      }

      .cls-6 {
        fill: #ffc727;
      }

      .cls-7 {
        fill: #838383;
      }
    </style>
  </defs>
  <path class="cls-7" d="m56.18,172.53h1.04l-2.31,6.04h-.32l-1.77-4.21-1.77,4.21h-.32l-2.31-6.04h1.05l1.49,4.01,1.7-4.11h.33l1.71,4.11,1.49-4.01Zm5.48,4.04h-3.29c.12.72.68,1.16,1.44,1.16.46,0,.89-.17,1.29-.52l.45.65c-.5.48-1.09.71-1.76.71-1.35,0-2.38-1-2.38-2.3-.03-1.27,1.03-2.34,2.29-2.31,1.17,0,2.04.87,2.04,2.02,0,.19-.03.39-.07.59Zm-3.28-.74h2.4c0-.68-.51-1.08-1.13-1.08s-1.12.42-1.27,1.08Zm4.43,2.64v-4.42h.94v4.42h-.94Zm-.17-6.07c0-.35.29-.63.65-.63s.64.28.64.63-.29.62-.64.62-.65-.27-.65-.62Zm5.95,1.65h.87v3.96c0,1.4-.87,2.18-2.21,2.18-.87,0-1.59-.34-2.12-.84l.52-.66c.49.4.94.63,1.55.63.8,0,1.32-.43,1.32-1.26v-.32c-.33.4-.88.63-1.49.63-1.23,0-2.15-.93-2.15-2.21s.93-2.21,2.15-2.21c.67,0,1.24.27,1.57.73v-.63Zm-.06,2.11c0-.9-.6-1.36-1.33-1.36-.39,0-.7.13-.96.38-.26.25-.39.58-.39.99s.13.75.39,1.01c.26.25.58.38.96.38s.68-.12.94-.36c.26-.24.4-.58.4-1.04Zm6.16-.45v2.76h-.94v-2.63c0-.61-.38-1.03-.96-1.03s-1.01.42-1.01,1.03v2.63h-.94v-6.75h.94v2.77c.3-.35.75-.54,1.28-.54,1.01,0,1.64.71,1.64,1.76Zm3.94,1.96v.8c-.3.06-.56.1-.78.1-1.02,0-1.63-.5-1.63-1.54v-2.16h-.72v-.82h.72v-1.16h.95v1.16h1.31v.82h-1.31v2.08c0,.57.3.76.87.76.14,0,.32-.02.59-.04Zm-22.45,13.8v-6.75h.94v6.75h-.94Zm2.03-2.21c-.03-1.27,1.06-2.32,2.33-2.3,1.29-.03,2.38,1.05,2.35,2.3.03,1.25-1.06,2.34-2.35,2.31-1.27.03-2.36-1.06-2.33-2.31Zm3.71,0c0-.82-.6-1.45-1.37-1.45s-1.38.63-1.38,1.45.59,1.43,1.37,1.43,1.38-.63,1.38-1.43Zm1.64,1.45l.54-.59c.39.4.77.63,1.24.63.4,0,.71-.17.71-.49,0-.26-.19-.37-.62-.55l-.45-.19c-.78-.32-1.15-.67-1.15-1.29,0-.79.66-1.28,1.56-1.28.64,0,1.14.23,1.53.68l-.51.59c-.28-.29-.65-.45-1.03-.45s-.6.14-.6.42c0,.23.15.34.58.52l.42.17c.84.35,1.21.71,1.21,1.33,0,.42-.15.76-.47,1-.32.23-.7.35-1.17.35-.76,0-1.39-.34-1.78-.86Zm4.1,0l.54-.59c.39.4.77.63,1.24.63.4,0,.71-.17.71-.49,0-.26-.19-.37-.62-.55l-.45-.19c-.78-.32-1.15-.67-1.15-1.29,0-.79.66-1.28,1.56-1.28.64,0,1.14.23,1.53.68l-.51.59c-.28-.29-.65-.45-1.04-.45s-.6.14-.6.42c0,.23.15.34.58.52l.42.17c.84.35,1.21.71,1.21,1.33,0,.42-.15.76-.47,1-.32.23-.7.35-1.17.35-.76,0-1.39-.34-1.78-.86Z"/>
  <path class="cls-7" d="m118.5,172.43h.32v6.04h-.95v-3.73l-1.7,2.23h-.32l-1.71-2.24v3.74h-.95v-6.04h.33l2.49,3.32,2.49-3.32Zm5.69,4.14h-3.29c.12.72.68,1.16,1.44,1.16.46,0,.89-.17,1.29-.52l.45.65c-.5.48-1.09.71-1.76.71-1.35,0-2.38-1-2.38-2.3-.03-1.27,1.04-2.34,2.29-2.31,1.17,0,2.04.87,2.04,2.02,0,.19-.03.39-.07.59Zm-3.28-.74h2.4c0-.68-.51-1.08-1.13-1.08s-1.12.42-1.27,1.08Zm8.29-.13v2.76h-.94v-2.64c0-.61-.39-1.03-.96-1.03s-1.01.42-1.01,1.03v2.64h-.95v-4.42h.88v.43c.33-.35.77-.53,1.32-.53,1.04,0,1.66.7,1.66,1.76Zm3.94,1.96v.8c-.3.06-.56.1-.78.1-1.02,0-1.63-.5-1.63-1.54v-2.16h-.72v-.82h.72v-1.16h.95v1.16h1.31v.82h-1.31v2.08c0,.57.3.76.87.76.13,0,.32-.02.58-.04Zm4.47-1.87v2.67h-.88v-.49c-.32.39-.81.59-1.41.59-.93,0-1.54-.51-1.54-1.28s.63-1.26,1.63-1.26h1.25v-.29c0-.61-.34-.95-.95-.95-.49,0-.85.22-1.22.66l-.55-.56c.44-.64,1.1-.95,1.86-.95,1.09,0,1.81.66,1.81,1.85Zm-.95,1v-.08h-1.13c-.5,0-.78.18-.78.54s.32.58.77.58c.64,0,1.14-.44,1.14-1.04Zm2.27,1.67v-6.75h.95v6.75h-.95Zm-25.38,13v-5.94h.95v2.37h2.99v-2.37h.95v5.94h-.95v-2.72h-2.99v2.72h-.95Zm10.27-1.9h-3.29c.12.72.68,1.16,1.44,1.16.46,0,.89-.17,1.29-.52l.45.65c-.5.48-1.09.71-1.76.71-1.35,0-2.38-1-2.38-2.3-.03-1.27,1.04-2.34,2.29-2.31,1.17,0,2.04.87,2.04,2.02,0,.19-.03.39-.07.59Zm-3.28-.74h2.4c0-.68-.51-1.08-1.13-1.08s-1.12.42-1.27,1.08Zm7.94-.04v2.67h-.88v-.49c-.32.39-.81.59-1.41.59-.93,0-1.54-.51-1.54-1.28s.63-1.26,1.63-1.26h1.25v-.29c0-.61-.34-.95-.94-.95-.5,0-.86.22-1.22.66l-.55-.56c.44-.64,1.1-.95,1.86-.95,1.09,0,1.81.66,1.81,1.85Zm-.95,1v-.08h-1.13c-.5,0-.78.18-.78.54s.32.58.77.58c.64,0,1.14-.44,1.14-1.04Zm2.27,1.67v-6.75h.95v6.75h-.95Zm4.94-.8v.8c-.3.06-.56.1-.78.1-1.02,0-1.63-.5-1.63-1.54v-2.16h-.72v-.82h.72v-1.16h.95v1.16h1.31v.82h-1.31v2.08c0,.57.3.76.87.76.13,0,.32-.02.58-.04Zm4.82-1.96v2.76h-.94v-2.63c0-.61-.38-1.03-.96-1.03s-1.01.42-1.01,1.03v2.63h-.94v-6.75h.94v2.77c.3-.35.75-.54,1.28-.54,1.01,0,1.64.71,1.64,1.76Z"/>
  <path class="cls-7" d="m185.51,178.47v-5.94h2.17c1.2,0,2.02.75,2.02,1.82s-.82,1.83-2.02,1.83h-1.22v2.3h-.95Zm.95-3.14h1.2c.68,0,1.05-.39,1.05-.97s-.38-.98-1.05-.98h-1.2v1.95Zm7.64.47v2.67h-.88v-.49c-.32.39-.81.59-1.41.59-.93,0-1.54-.51-1.54-1.28s.63-1.26,1.63-1.26h1.25v-.29c0-.61-.34-.95-.95-.95-.49,0-.85.22-1.22.66l-.55-.56c.44-.64,1.1-.95,1.86-.95,1.09,0,1.81.66,1.81,1.85Zm-.95,1v-.08h-1.13c-.5,0-.78.18-.78.54s.32.58.77.58c.64,0,1.14-.44,1.14-1.04Zm2.27,1.67v-4.42h.95v4.42h-.95Zm-.17-6.07c0-.35.29-.63.65-.63s.64.28.64.63-.29.62-.64.62-.65-.27-.65-.62Zm6.34,3.3v2.76h-.95v-2.64c0-.61-.39-1.03-.96-1.03s-1.01.42-1.01,1.03v2.64h-.95v-4.42h.88v.43c.33-.35.77-.53,1.32-.53,1.04,0,1.66.7,1.66,1.76Zm-24.04,15.76h-1.09l-1.69-2.3h-1.09v2.3h-.95v-5.94h2.17c1.2,0,2.02.75,2.02,1.82,0,.78-.43,1.4-1.14,1.67l1.78,2.45Zm-3.87-5.09v1.95h1.2c.66,0,1.05-.4,1.05-.97s-.4-.98-1.05-.98h-1.2Zm8.51,3.19h-3.29c.12.72.68,1.16,1.44,1.16.46,0,.89-.17,1.29-.52l.45.65c-.5.48-1.09.71-1.76.71-1.35,0-2.38-1-2.38-2.3-.03-1.27,1.04-2.34,2.29-2.31,1.17,0,2.04.87,2.04,2.02,0,.19-.03.39-.07.59Zm-3.28-.74h2.4c0-.68-.51-1.08-1.13-1.08s-1.12.42-1.27,1.08Zm7.79-4.11h.95v6.75h-.88v-.63c-.32.46-.89.73-1.55.73-1.24,0-2.16-1-2.16-2.3-.03-1.29.94-2.34,2.16-2.31.61,0,1.14.23,1.48.64v-2.87Zm.02,4.54c0-.95-.65-1.45-1.33-1.45-.76,0-1.36.59-1.36,1.44s.58,1.45,1.36,1.45c.69,0,1.33-.48,1.33-1.44Zm2.26.35v-2.57h.94v2.64c0,.61.42,1.01,1,1.01s.97-.4.97-1.01v-2.64h.95v2.57c0,1.19-.84,1.95-1.92,1.95s-1.93-.77-1.93-1.95Zm4.9-.36c-.03-1.27,1.07-2.32,2.34-2.3.82,0,1.48.39,1.86,1.03l-.67.52c-.32-.45-.71-.67-1.19-.67-.79,0-1.39.63-1.39,1.43s.59,1.44,1.39,1.44c.47,0,.86-.22,1.19-.67l.67.51c-.4.64-1.06,1.03-1.86,1.03-1.31,0-2.34-1.03-2.34-2.31Zm7.87,1.41v.8c-.3.06-.56.1-.78.1-1.02,0-1.63-.5-1.63-1.54v-2.16h-.72v-.82h.72v-1.16h.95v1.16h1.31v.82h-1.31v2.08c0,.57.3.76.87.76.13,0,.32-.02.58-.04Zm.96.8v-4.42h.94v4.42h-.94Zm-.17-6.07c0-.35.29-.63.65-.63s.64.28.64.63-.29.62-.64.62-.65-.27-.65-.62Zm2.2,3.85c-.03-1.27,1.06-2.32,2.33-2.3,1.29-.03,2.38,1.05,2.35,2.3.03,1.25-1.06,2.34-2.35,2.31-1.27.03-2.36-1.06-2.33-2.31Zm3.71,0c0-.82-.6-1.45-1.37-1.45s-1.38.63-1.38,1.45.59,1.43,1.37,1.43,1.38-.63,1.38-1.43Zm5.92-.56v2.76h-.95v-2.64c0-.61-.39-1.03-.96-1.03s-1.01.42-1.01,1.03v2.64h-.94v-4.42h.88v.43c.33-.35.77-.53,1.32-.53,1.04,0,1.66.7,1.66,1.76Z"/>
  <path class="cls-7" d="m248.57,178.47v-5.94h3.91v.86h-2.95v1.52h2.22v.83h-2.22v1.88h3.06v.86h-4.01Zm8.92-2.76v2.76h-.95v-2.64c0-.61-.39-1.03-.96-1.03s-1.01.42-1.01,1.03v2.64h-.95v-4.42h.88v.43c.33-.35.77-.53,1.32-.53,1.04,0,1.66.7,1.66,1.76Zm5.29.86h-3.29c.12.72.68,1.16,1.44,1.16.46,0,.89-.17,1.29-.52l.45.65c-.5.48-1.09.71-1.76.71-1.35,0-2.38-1-2.38-2.3-.03-1.27,1.04-2.34,2.29-2.31,1.17,0,2.04.87,2.04,2.02,0,.19-.03.39-.07.59Zm-3.28-.74h2.4c0-.68-.51-1.08-1.13-1.08s-1.12.42-1.27,1.08Zm6.96-1.78v.84h-.29c-.75,0-1.3.44-1.3,1.22v2.36h-.95v-4.42h.88v.58c.32-.4.78-.62,1.29-.62.14,0,.25.02.36.04Zm4.22,0h.87v3.96c0,1.4-.87,2.18-2.21,2.18-.87,0-1.59-.34-2.12-.84l.52-.66c.49.4.95.63,1.55.63.8,0,1.32-.43,1.32-1.26v-.32c-.33.4-.88.63-1.49.63-1.23,0-2.15-.93-2.15-2.21s.93-2.21,2.15-2.21c.67,0,1.24.27,1.57.73v-.63Zm-.06,2.11c0-.9-.6-1.36-1.33-1.36-.39,0-.7.13-.96.38-.26.25-.39.58-.39.99s.13.75.39,1.01c.26.25.58.38.96.38s.67-.12.94-.36c.26-.24.4-.58.4-1.04Zm5.38-2.11h1.01l-2.15,4.92c-.37.84-.86,1.21-1.62,1.21-.24,0-.49-.03-.73-.09v-.8c.28.03.45.04.52.04.44,0,.75-.15.96-.65l.18-.41-1.76-4.22h1.02l1.27,3.21,1.3-3.21Zm-24.6,15.69c0,1-.77,1.73-1.93,1.73h-2.55v-5.94h2.08c1.07,0,1.78.67,1.78,1.58,0,.46-.17.84-.49,1.12.69.22,1.11.78,1.11,1.51Zm-2.48-3.38h-1.05v1.6h1.05c.58,0,.92-.32.92-.81s-.33-.79-.92-.79Zm1.52,3.35c0-.57-.39-.93-1.04-.93h-1.53v1.85h1.53c.66,0,1.04-.35,1.04-.92Zm1.71-.46c-.03-1.27,1.06-2.32,2.33-2.3,1.29-.03,2.38,1.05,2.35,2.3.03,1.25-1.06,2.34-2.35,2.31-1.27.03-2.36-1.06-2.33-2.31Zm3.71,0c0-.82-.6-1.45-1.37-1.45s-1.38.63-1.38,1.45.59,1.43,1.37,1.43,1.38-.63,1.38-1.43Zm1.78,0c-.03-1.27,1.06-2.32,2.33-2.3,1.29-.03,2.38,1.05,2.35,2.3.03,1.25-1.06,2.34-2.35,2.31-1.27.03-2.36-1.06-2.33-2.31Zm3.71,0c0-.82-.6-1.45-1.37-1.45s-1.38.63-1.38,1.45.59,1.43,1.37,1.43,1.38-.63,1.38-1.43Zm1.64,1.45l.54-.59c.39.4.77.63,1.24.63.4,0,.71-.17.71-.49,0-.26-.19-.37-.62-.55l-.45-.19c-.78-.32-1.15-.67-1.15-1.29,0-.79.66-1.28,1.56-1.28.64,0,1.14.23,1.53.68l-.51.59c-.28-.29-.65-.45-1.04-.45s-.6.14-.6.42c0,.23.15.34.58.52l.42.17c.84.35,1.21.71,1.21,1.33,0,.42-.15.76-.47,1-.32.23-.7.35-1.17.35-.76,0-1.39-.34-1.78-.86Zm7.14-.04v.8c-.3.06-.56.1-.78.1-1.02,0-1.63-.5-1.63-1.54v-2.16h-.72v-.82h.72v-1.16h.95v1.16h1.31v.82h-1.31v2.08c0,.57.3.76.87.76.14,0,.32-.02.58-.04Zm4.85-1.1h-3.29c.12.72.68,1.16,1.44,1.16.46,0,.89-.17,1.29-.52l.45.65c-.5.48-1.09.71-1.76.71-1.35,0-2.38-1-2.38-2.3-.03-1.27,1.04-2.34,2.29-2.31,1.17,0,2.04.87,2.04,2.02,0,.19-.03.39-.07.59Zm-3.28-.74h2.4c0-.68-.51-1.08-1.13-1.08s-1.12.42-1.27,1.08Zm6.96-1.78v.84h-.29c-.75,0-1.3.44-1.3,1.22v2.36h-.95v-4.42h.88v.58c.32-.4.78-.62,1.29-.62.13,0,.25.02.36.04Z"/>
  <path class="cls-7" d="m311.61,178.47v-5.94h.95v2.37h2.99v-2.37h.95v5.94h-.95v-2.72h-2.99v2.72h-.95Zm10.27-1.9h-3.29c.12.72.68,1.16,1.44,1.16.46,0,.89-.17,1.29-.52l.45.65c-.5.48-1.09.71-1.76.71-1.35,0-2.38-1-2.38-2.3-.03-1.27,1.04-2.34,2.29-2.31,1.17,0,2.04.87,2.04,2.02,0,.19-.03.39-.07.59Zm-3.28-.74h2.4c0-.68-.51-1.08-1.13-1.08s-1.12.42-1.27,1.08Zm7.94-.04v2.67h-.88v-.49c-.32.39-.81.59-1.41.59-.93,0-1.54-.51-1.54-1.28s.63-1.26,1.63-1.26h1.25v-.29c0-.61-.34-.95-.95-.95-.49,0-.86.22-1.22.66l-.55-.56c.44-.64,1.1-.95,1.86-.95,1.09,0,1.81.66,1.81,1.85Zm-.95,1v-.08h-1.13c-.5,0-.78.18-.78.54s.32.58.77.58c.64,0,1.14-.44,1.14-1.04Zm4.8-2.74v.84h-.29c-.75,0-1.3.44-1.3,1.22v2.36h-.95v-4.42h.88v.58c.32-.4.78-.62,1.29-.62.14,0,.25.02.36.04Zm3.47,3.62v.8c-.3.06-.56.1-.78.1-1.02,0-1.63-.5-1.63-1.54v-2.16h-.72v-.82h.72v-1.16h.95v1.16h1.31v.82h-1.31v2.08c0,.57.3.76.87.76.13,0,.32-.02.58-.04Zm-24.31,13.8v-5.94h.95v2.37h2.99v-2.37h.95v5.94h-.95v-2.72h-2.99v2.72h-.95Zm10.27-1.9h-3.29c.12.72.68,1.16,1.44,1.16.46,0,.89-.17,1.29-.52l.45.65c-.5.48-1.09.71-1.76.71-1.35,0-2.38-1-2.38-2.3-.03-1.27,1.04-2.34,2.29-2.31,1.17,0,2.04.87,2.04,2.02,0,.19-.03.39-.07.59Zm-3.28-.74h2.4c0-.68-.51-1.08-1.13-1.08s-1.12.42-1.27,1.08Zm7.94-.04v2.67h-.88v-.49c-.32.39-.81.59-1.41.59-.93,0-1.54-.51-1.54-1.28s.63-1.26,1.63-1.26h1.25v-.29c0-.61-.34-.95-.95-.95-.49,0-.85.22-1.22.66l-.55-.56c.44-.64,1.1-.95,1.86-.95,1.09,0,1.81.66,1.81,1.85Zm-.95,1v-.08h-1.13c-.5,0-.78.18-.78.54s.32.58.77.58c.64,0,1.14-.44,1.14-1.04Zm2.27,1.67v-6.75h.94v6.75h-.94Zm4.94-.8v.8c-.3.06-.56.1-.78.1-1.02,0-1.63-.5-1.63-1.54v-2.16h-.72v-.82h.72v-1.16h.95v1.16h1.31v.82h-1.31v2.08c0,.57.3.76.87.76.14,0,.32-.02.59-.04Zm4.82-1.96v2.76h-.95v-2.63c0-.61-.38-1.03-.96-1.03s-1.01.42-1.01,1.03v2.63h-.95v-6.75h.95v2.77c.3-.35.75-.54,1.28-.54,1.01,0,1.64.71,1.64,1.76Z"/>
  <path class="cls-7" d="m365.91,178.47v-5.94h3.82v.86h-2.86v1.77h2.36v.86h-2.36v2.45h-.95Zm4.7,0v-4.42h.94v4.42h-.94Zm-.17-6.07c0-.35.29-.63.65-.63s.64.28.64.63-.29.62-.64.62-.65-.27-.65-.62Zm6.34,3.3v2.76h-.95v-2.64c0-.61-.39-1.03-.96-1.03s-1.01.42-1.01,1.03v2.64h-.95v-4.42h.88v.43c.33-.35.77-.53,1.32-.53,1.04,0,1.66.7,1.66,1.76Zm4.83.09v2.67h-.88v-.49c-.32.39-.81.59-1.41.59-.93,0-1.54-.51-1.54-1.28s.63-1.26,1.63-1.26h1.25v-.29c0-.61-.34-.95-.94-.95-.5,0-.86.22-1.22.66l-.55-.56c.44-.64,1.1-.95,1.86-.95,1.09,0,1.81.66,1.81,1.85Zm-.95,1v-.08h-1.13c-.5,0-.78.18-.78.54s.32.58.77.58c.64,0,1.14-.44,1.14-1.04Zm6.13-1.09v2.76h-.95v-2.64c0-.61-.39-1.03-.96-1.03s-1.01.42-1.01,1.03v2.64h-.95v-4.42h.88v.43c.33-.35.77-.53,1.32-.53,1.04,0,1.66.7,1.66,1.76Zm1.04.55c-.03-1.27,1.07-2.32,2.34-2.3.82,0,1.48.39,1.86,1.03l-.67.52c-.32-.45-.71-.67-1.19-.67-.79,0-1.39.63-1.39,1.43s.59,1.44,1.39,1.44c.47,0,.86-.22,1.19-.67l.67.51c-.4.64-1.06,1.03-1.86,1.03-1.31,0-2.34-1.03-2.34-2.31Zm5.24,2.21v-4.42h.95v4.42h-.95Zm-.17-6.07c0-.35.29-.63.65-.63s.64.28.64.63-.29.62-.64.62-.65-.27-.65-.62Zm5.99,3.39v2.67h-.88v-.49c-.32.39-.81.59-1.41.59-.93,0-1.54-.51-1.54-1.28s.63-1.26,1.63-1.26h1.25v-.29c0-.61-.34-.95-.95-.95-.49,0-.86.22-1.22.66l-.55-.56c.44-.64,1.1-.95,1.86-.95,1.09,0,1.81.66,1.81,1.85Zm-.95,1v-.08h-1.13c-.5,0-.78.18-.78.54s.32.58.77.58c.64,0,1.14-.44,1.14-1.04Zm2.27,1.67v-6.75h.95v6.75h-.95Zm-29.65,13v-5.94h.95v2.37h2.99v-2.37h.95v5.94h-.95v-2.72h-2.99v2.72h-.95Zm10.27-1.9h-3.29c.12.72.68,1.16,1.44,1.16.46,0,.89-.17,1.29-.52l.45.65c-.5.48-1.09.71-1.76.71-1.35,0-2.38-1-2.38-2.3-.03-1.27,1.04-2.34,2.29-2.31,1.17,0,2.04.87,2.04,2.02,0,.19-.03.39-.07.59Zm-3.28-.74h2.4c0-.68-.51-1.08-1.13-1.08s-1.12.42-1.27,1.08Zm7.94-.04v2.67h-.88v-.49c-.32.39-.81.59-1.41.59-.93,0-1.54-.51-1.54-1.28s.63-1.26,1.63-1.26h1.25v-.29c0-.61-.34-.95-.95-.95-.49,0-.85.22-1.22.66l-.55-.56c.44-.64,1.1-.95,1.86-.95,1.09,0,1.81.66,1.81,1.85Zm-.95,1v-.08h-1.13c-.5,0-.78.18-.78.54s.32.58.77.58c.64,0,1.14-.44,1.14-1.04Zm2.27,1.67v-6.75h.94v6.75h-.94Zm4.94-.8v.8c-.3.06-.56.1-.78.1-1.02,0-1.63-.5-1.63-1.54v-2.16h-.72v-.82h.72v-1.16h.95v1.16h1.31v.82h-1.31v2.08c0,.57.3.76.87.76.14,0,.32-.02.59-.04Zm4.82-1.96v2.76h-.95v-2.63c0-.61-.38-1.03-.96-1.03s-1.01.42-1.01,1.03v2.63h-.95v-6.75h.95v2.77c.3-.35.75-.54,1.28-.54,1.01,0,1.64.71,1.64,1.76Z"/>
  <path class="cls-7" d="m436.79,178.28l.68-.51c.4.58.87.95,1.56.95.61,0,1.03-.32,1.03-.83,0-.42-.25-.6-.87-.89l-.66-.31c-.86-.4-1.39-.86-1.39-1.65,0-.97.85-1.61,1.87-1.61.84,0,1.55.42,1.92,1.06l-.67.51c-.32-.47-.75-.72-1.25-.72s-.9.25-.9.72c.04.47.24.55.83.85l.67.31c.96.44,1.42.91,1.42,1.69,0,1.04-.85,1.72-1.99,1.72-.97,0-1.78-.49-2.24-1.29Zm5.34-.67v-2.57h.94v2.64c0,.61.42,1.01,1,1.01s.97-.4.97-1.01v-2.64h.95v2.57c0,1.19-.84,1.95-1.92,1.95s-1.93-.77-1.93-1.95Zm8.64-2.57h.87v3.96c0,1.4-.87,2.18-2.21,2.18-.87,0-1.59-.34-2.12-.84l.52-.66c.49.4.94.63,1.55.63.8,0,1.32-.43,1.32-1.26v-.32c-.33.4-.88.63-1.49.63-1.23,0-2.15-.93-2.15-2.21s.93-2.21,2.15-2.21c.67,0,1.24.27,1.57.73v-.63Zm-.06,2.11c0-.9-.6-1.36-1.33-1.36-.39,0-.7.13-.96.38-.26.25-.39.58-.39.99s.13.75.39,1.01c.26.25.58.38.96.38s.68-.12.94-.36c.26-.24.4-.58.4-1.04Zm5.81-.36v2.67h-.88v-.49c-.32.39-.81.59-1.41.59-.93,0-1.54-.51-1.54-1.28s.63-1.26,1.63-1.26h1.25v-.29c0-.61-.34-.95-.94-.95-.5,0-.86.22-1.22.66l-.55-.56c.44-.64,1.1-.95,1.86-.95,1.09,0,1.81.66,1.81,1.85Zm-.95,1v-.08h-1.13c-.5,0-.78.18-.78.54s.32.58.77.58c.64,0,1.14-.44,1.14-1.04Zm4.8-2.74v.84h-.29c-.75,0-1.3.44-1.3,1.22v2.36h-.95v-4.42h.88v.58c.32-.4.78-.62,1.29-.62.13,0,.25.02.36.04Zm-27.33,14.45c-.04-1.7,1.43-3.1,3.12-3.07,1.09,0,2.03.53,2.55,1.37l-.72.53c-.42-.66-1.04-1.03-1.82-1.03-1.21,0-2.14.94-2.14,2.2s.93,2.2,2.14,2.2c.78,0,1.39-.37,1.82-1.03l.72.53c-.5.84-1.44,1.37-2.55,1.37-1.69.03-3.16-1.37-3.12-3.07Zm6.38.76c-.03-1.27,1.06-2.32,2.33-2.3,1.29-.03,2.38,1.05,2.35,2.3.03,1.25-1.06,2.34-2.35,2.31-1.27.03-2.36-1.06-2.33-2.31Zm3.71,0c0-.82-.6-1.45-1.37-1.45s-1.38.63-1.38,1.45.59,1.43,1.37,1.43,1.38-.63,1.38-1.43Zm5.92-.56v2.76h-.94v-2.64c0-.61-.39-1.03-.96-1.03s-1.01.42-1.01,1.03v2.64h-.95v-4.42h.88v.43c.33-.35.77-.53,1.32-.53,1.03,0,1.66.7,1.66,1.76Zm3.94,1.96v.8c-.3.06-.56.1-.78.1-1.02,0-1.63-.5-1.63-1.54v-2.16h-.72v-.82h.72v-1.16h.95v1.16h1.31v.82h-1.31v2.08c0,.57.3.76.87.76.14,0,.32-.02.58-.04Zm3.49-3.62v.84h-.29c-.75,0-1.3.44-1.3,1.22v2.36h-.95v-4.42h.88v.58c.32-.4.78-.62,1.29-.62.14,0,.25.02.36.04Zm.48,2.21c-.03-1.27,1.06-2.32,2.33-2.3,1.29-.03,2.38,1.05,2.35,2.3.03,1.25-1.06,2.34-2.35,2.31-1.27.03-2.36-1.06-2.33-2.31Zm3.71,0c0-.82-.6-1.45-1.37-1.45s-1.38.63-1.38,1.45.59,1.43,1.37,1.43,1.38-.63,1.38-1.43Zm2.05,2.21v-6.75h.95v6.75h-.95Z"/>
  <path class="cls-7" d="m500.17,175.5c-.04-1.7,1.41-3.1,3.13-3.07,1.03,0,1.89.45,2.46,1.24l-.69.57c-.44-.62-1.03-.94-1.77-.94-1.25,0-2.13.94-2.13,2.19s.91,2.22,2.19,2.22c.78,0,1.4-.33,1.77-.9v-.64h-1.83v-.85h2.78v1.67c-.53.95-1.57,1.57-2.77,1.57-1.74.03-3.16-1.37-3.13-3.07Zm6.97,1.12v-2.57h.94v2.64c0,.61.42,1.01,1,1.01s.97-.4.97-1.01v-2.64h.95v2.57c0,1.19-.84,1.95-1.92,1.95s-1.93-.77-1.93-1.95Zm7.81,1.05v.8c-.3.06-.56.1-.78.1-1.02,0-1.63-.5-1.63-1.54v-2.16h-.72v-.82h.72v-1.16h.95v1.16h1.31v.82h-1.31v2.08c0,.57.3.76.87.76.14,0,.32-.02.59-.04Zm-20.39,13.8v-5.94h.95v2.37h2.99v-2.37h.95v5.94h-.95v-2.72h-2.99v2.72h-.95Zm10.27-1.9h-3.29c.12.72.68,1.16,1.44,1.16.46,0,.89-.17,1.29-.52l.45.65c-.5.48-1.09.71-1.76.71-1.35,0-2.38-1-2.38-2.3-.03-1.27,1.04-2.34,2.29-2.31,1.17,0,2.04.87,2.04,2.02,0,.19-.03.39-.07.59Zm-3.28-.74h2.4c0-.68-.51-1.08-1.13-1.08s-1.12.42-1.27,1.08Zm7.94-.04v2.67h-.88v-.49c-.32.39-.81.59-1.41.59-.93,0-1.54-.51-1.54-1.28s.63-1.26,1.63-1.26h1.25v-.29c0-.61-.34-.95-.95-.95-.49,0-.85.22-1.22.66l-.55-.56c.44-.64,1.1-.95,1.86-.95,1.09,0,1.81.66,1.81,1.85Zm-.95,1v-.08h-1.13c-.5,0-.78.18-.78.54s.32.58.77.58c.64,0,1.14-.44,1.14-1.04Zm2.27,1.67v-6.75h.95v6.75h-.95Zm4.94-.8v.8c-.3.06-.56.1-.78.1-1.02,0-1.63-.5-1.63-1.54v-2.16h-.72v-.82h.72v-1.16h.95v1.16h1.31v.82h-1.31v2.08c0,.57.3.76.87.76.14,0,.32-.02.58-.04Zm4.82-1.96v2.76h-.95v-2.63c0-.61-.38-1.03-.96-1.03s-1.01.42-1.01,1.03v2.63h-.95v-6.75h.95v2.77c.3-.35.75-.54,1.28-.54,1.01,0,1.64.71,1.64,1.76Z"/>
  <g class="cls-2">
    <path d="m11.42,4.38v1.11h-.82v1.05h-1.32v-1.05h-3.2v-.35L8.08.12h1.35l-1.71,4.27h1.56v-1.8h1.32v1.8h.82Zm.68-1.1c0-.98.21-1.77.65-2.38.44-.6,1.07-.91,1.9-.91s1.46.3,1.89.91c.44.61.65,1.39.65,2.38,0,1.9-.86,3.38-2.54,3.38s-2.55-1.48-2.55-3.38Zm3.74,0c0-1.36-.37-2.08-1.19-2.08s-1.2.71-1.2,2.08c0,1.43.4,2.15,1.2,2.15s1.19-.72,1.19-2.15Zm2.44,0c0-.98.21-1.77.65-2.38.44-.6,1.07-.91,1.9-.91s1.46.3,1.89.91c.44.61.65,1.39.65,2.38,0,1.9-.86,3.38-2.54,3.38s-2.55-1.48-2.55-3.38Zm3.74,0c0-1.36-.37-2.08-1.19-2.08s-1.2.71-1.2,2.08c0,1.43.4,2.15,1.2,2.15s1.19-.72,1.19-2.15Z"/>
    <path d="m11.12,39.83c0,1.3-1.09,2.22-2.43,2.22-1.06,0-1.9-.57-2.34-1.46l.92-.64c.39.58.79.89,1.38.89.65,0,1.12-.38,1.12-.99s-.46-.93-1.32-.93h-.81v-.34l1.34-1.88h-2.14v-1.19h4.14v.35l-1.42,2.01c.44.12.8.35,1.1.69.3.34.45.77.45,1.28Zm.98-1.16c0-.98.21-1.77.65-2.38.44-.6,1.07-.91,1.9-.91s1.46.3,1.89.91c.44.6.65,1.39.65,2.38,0,1.9-.86,3.38-2.54,3.38s-2.55-1.48-2.55-3.38Zm3.74.01c0-1.37-.37-2.08-1.19-2.08s-1.2.71-1.2,2.08c0,1.43.4,2.15,1.2,2.15s1.19-.72,1.19-2.15Zm2.44-.01c0-.98.21-1.77.65-2.38.44-.6,1.07-.91,1.9-.91s1.46.3,1.89.91c.44.6.65,1.39.65,2.38,0,1.9-.86,3.38-2.54,3.38s-2.55-1.48-2.55-3.38Zm3.74.01c0-1.37-.37-2.08-1.19-2.08s-1.2.71-1.2,2.08c0,1.43.4,2.15,1.2,2.15s1.19-.72,1.19-2.15Z"/>
    <path d="m8.65,75.43h2.4v1.12h-4.75s0-.27,0-.27l2.3-2.5c.63-.69.91-1.14.91-1.62,0-.55-.35-.94-.9-.94s-.91.4-.91.98c0,.12.02.27.05.47h-1.33c-.05-.18-.07-.36-.07-.55,0-1.09.9-2.12,2.27-2.12,1.29,0,2.23.89,2.23,2.06,0,.44-.12.84-.35,1.22-.23.37-.57.8-1.03,1.28l-.83.88Zm3.45-2.14c0-.98.21-1.77.65-2.38.44-.6,1.07-.91,1.9-.91s1.46.3,1.89.91c.44.61.65,1.39.65,2.38,0,1.9-.86,3.38-2.54,3.38s-2.55-1.48-2.55-3.38Zm3.74,0c0-1.36-.37-2.08-1.19-2.08s-1.2.71-1.2,2.08c0,1.43.4,2.15,1.2,2.15s1.19-.72,1.19-2.15Zm2.44,0c0-.98.21-1.77.65-2.38.44-.6,1.07-.91,1.9-.91s1.46.3,1.89.91c.44.61.65,1.39.65,2.38,0,1.9-.86,3.38-2.54,3.38s-2.55-1.48-2.55-3.38Zm3.74,0c0-1.36-.37-2.08-1.19-2.08s-1.2.71-1.2,2.08c0,1.43.4,2.15,1.2,2.15s1.19-.72,1.19-2.15Z"/>
    <path d="m10.23,105.5h.44v6.43h-1.32v-4.87l-1.22.39-.31-1.16,2.41-.79Zm1.87,3.17c0-.98.21-1.77.65-2.38.44-.6,1.07-.91,1.9-.91s1.46.3,1.89.91c.44.6.65,1.39.65,2.38,0,1.9-.86,3.38-2.54,3.38s-2.55-1.48-2.55-3.38Zm3.74.01c0-1.37-.37-2.08-1.19-2.08s-1.2.71-1.2,2.08c0,1.43.4,2.15,1.2,2.15s1.19-.72,1.19-2.15Zm2.44-.01c0-.98.21-1.77.65-2.38.44-.6,1.07-.91,1.9-.91s1.46.3,1.89.91c.44.6.65,1.39.65,2.38,0,1.9-.86,3.38-2.54,3.38s-2.55-1.48-2.55-3.38Zm3.74.01c0-1.37-.37-2.08-1.19-2.08s-1.2.71-1.2,2.08c0,1.43.4,2.15,1.2,2.15s1.19-.72,1.19-2.15Z"/>
    <path d="m17.23,143.86c0-.98.21-1.77.65-2.38.44-.6,1.07-.91,1.9-.91s1.46.3,1.89.91c.44.6.65,1.39.65,2.38,0,1.9-.86,3.38-2.54,3.38s-2.55-1.48-2.55-3.38Zm3.74,0c0-1.36-.37-2.08-1.19-2.08s-1.2.71-1.2,2.08c0,1.43.4,2.15,1.2,2.15s1.19-.72,1.19-2.15Z"/>
  </g>
  <line class="cls-4" y1="23.07" x2="524" y2="23.07"/>
  <line class="cls-4" y1="59.07" x2="524" y2="59.07"/>
  <line class="cls-4" y1="95.07" x2="524" y2="95.07"/>
  <line class="cls-4" y1="131.07" x2="524" y2="131.07"/>
  <line class="cls-4" x1="63.4" y1=".47" x2="63.4" y2="155.47"/>
  <line class="cls-4" x1="126.4" y1=".47" x2="126.4" y2="155.47"/>
  <line class="cls-4" x1="193.4" y1=".47" x2="193.4" y2="155.47"/>
  <line class="cls-4" x1="261.4" y1=".47" x2="261.4" y2="155.47"/>
  <line class="cls-4" x1="322.4" y1=".47" x2="322.4" y2="155.47"/>
  <line class="cls-4" x1="383.4" y1=".47" x2="383.4" y2="155.47"/>
  <line class="cls-4" x1="446.4" y1=".47" x2="446.4" y2="155.47"/>
  <line class="cls-4" x1="507.4" y1=".47" x2="507.4" y2="155.47"/>
  <path class="cls-3" d="m63,94.97l63.5-35.5,66,35.5,69-23.5,62,23.5,59-54,63,54,62-35.5"/>
  <circle class="cls-6" cx="63.5" cy="94.97" r="2.5"/>
  <circle class="cls-6" cx="126.5" cy="58.97" r="2.5"/>
  <circle class="cls-6" cx="193.5" cy="94.97" r="2.5"/>
  <circle class="cls-6" cx="261.5" cy="70.97" r="2.5"/>
  <circle class="cls-6" cx="383.5" cy="39.97" r="2.5"/>
  <circle class="cls-6" cx="322.5" cy="94.97" r="2.5"/>
  <circle class="cls-6" cx="446.5" cy="94.97" r="2.5"/>
  <circle class="cls-6" cx="506.5" cy="58.97" r="2.5"/>
  <path class="cls-1" d="m125,53.05c0-10.22,8.28-18.5,18.5-18.5h85.07c5.76,0,10.43,4.67,10.43,10.43,0,7.49-6.07,13.57-13.57,13.57h-100.43v-5.5Z"/>
  <path class="cls-5" d="m136.88,49.37h3.35v1.1h-5.68v-.29l2.82-3.04c.88-.92,1.26-1.5,1.26-2.17,0-.8-.52-1.39-1.32-1.39s-1.34.62-1.34,1.44c0,.17.02.37.06.61h-1.28c-.06-.22-.08-.44-.08-.68,0-1.3,1.04-2.53,2.66-2.53,1.51,0,2.63,1.07,2.63,2.46,0,.54-.14,1.03-.43,1.48-.28.44-.7.95-1.25,1.54l-1.39,1.48Zm10.11-1.45c0,1.6-1.34,2.69-2.92,2.69-1.31,0-2.3-.68-2.84-1.7l.89-.64c.48.73,1.07,1.18,1.92,1.18.95,0,1.64-.59,1.64-1.5s-.66-1.4-1.82-1.4h-1.82v-3.98h4.51v1.14h-3.26v1.86c.31-.07.65-.11,1.01-.11,1.42,0,2.7.88,2.7,2.47Zm1.32-1.48c0-1.2.25-2.17.77-2.9.52-.74,1.26-1.12,2.26-1.12s1.74.37,2.24,1.1c.52.73.77,1.7.77,2.92,0,2.34-.97,4.16-3.01,4.16s-3.02-1.82-3.02-4.16Zm4.72.01c0-1.91-.56-2.87-1.69-2.87s-1.7.96-1.7,2.87.54,2.99,1.7,2.99,1.69-1.12,1.69-2.99Zm15.81,1.07c0,1.76-1.22,3.08-2.89,3.08-.8,0-1.5-.31-1.97-.85v2.88h-1.26v-8.05h1.18v.83c.43-.61,1.19-.96,2.05-.96,1.67,0,2.89,1.33,2.89,3.07Zm-1.3.01c0-1.13-.78-1.93-1.8-1.93-.92,0-1.78.64-1.78,1.92s.85,1.93,1.78,1.93c1.01,0,1.8-.79,1.8-1.92Zm7.43-.62v3.56h-1.18v-.66c-.43.52-1.08.79-1.88.79-1.24,0-2.05-.68-2.05-1.7s.84-1.68,2.17-1.68h1.67v-.38c0-.82-.46-1.26-1.26-1.26-.66,0-1.14.29-1.63.88l-.73-.74c.59-.85,1.46-1.26,2.48-1.26,1.45,0,2.41.88,2.41,2.46Zm-1.27,1.33v-.11h-1.51c-.67,0-1.04.24-1.04.72s.42.78,1.03.78c.85,0,1.52-.59,1.52-1.39Zm6.4-3.66v1.12h-.38c-1,0-1.73.59-1.73,1.63v3.14h-1.26v-5.89h1.18v.77c.42-.53,1.04-.83,1.72-.83.18,0,.34.02.48.06Zm4.63,4.82v1.07c-.4.08-.74.13-1.04.13-1.36,0-2.17-.67-2.17-2.05v-2.88h-.96v-1.09h.96v-1.55h1.27v1.55h1.75v1.09h-1.75v2.77c0,.76.4,1.02,1.16,1.02.18,0,.43-.02.78-.06Zm1.28,1.07v-5.89h1.26v5.89h-1.26Zm-.23-8.09c0-.47.38-.84.86-.84s.85.37.85.84-.38.83-.85.83-.86-.36-.86-.83Zm2.94,5.14c-.04-1.69,1.43-3.1,3.12-3.07,1.09,0,1.97.52,2.48,1.37l-.89.7c-.42-.6-.95-.9-1.58-.9-1.06,0-1.85.84-1.85,1.91s.79,1.92,1.85,1.92c.62,0,1.15-.3,1.58-.89l.89.68c-.53.85-1.42,1.37-2.48,1.37-1.74,0-3.12-1.37-3.12-3.08Zm6.99,2.95v-5.89h1.26v5.89h-1.26Zm-.23-8.09c0-.47.38-.84.86-.84s.85.37.85.84-.38.83-.85.83-.86-.36-.86-.83Zm9.43,5.14c0,1.76-1.22,3.08-2.89,3.08-.8,0-1.5-.31-1.97-.85v2.88h-1.26v-8.05h1.18v.83c.43-.61,1.19-.96,2.05-.96,1.67,0,2.89,1.33,2.89,3.07Zm-1.3.01c0-1.13-.78-1.93-1.8-1.93-.92,0-1.78.64-1.78,1.92s.85,1.93,1.78,1.93c1.01,0,1.8-.79,1.8-1.92Zm7.43-.62v3.56h-1.18v-.66c-.43.52-1.08.79-1.88.79-1.24,0-2.05-.68-2.05-1.7s.84-1.68,2.17-1.68h1.67v-.38c0-.82-.46-1.26-1.26-1.26-.66,0-1.14.29-1.63.88l-.73-.74c.59-.85,1.46-1.26,2.48-1.26,1.45,0,2.41.88,2.41,2.46Zm-1.27,1.33v-.11h-1.51c-.67,0-1.04.24-1.04.72s.42.78,1.03.78c.85,0,1.52-.59,1.52-1.39Zm8.17-1.45v3.68h-1.26v-3.52c0-.82-.52-1.37-1.28-1.37s-1.34.56-1.34,1.37v3.52h-1.26v-5.89h1.18v.58c.44-.47,1.03-.71,1.76-.71,1.38,0,2.21.94,2.21,2.34Zm5.26,2.62v1.07c-.4.08-.74.13-1.04.13-1.36,0-2.17-.67-2.17-2.05v-2.88h-.96v-1.09h.96v-1.55h1.27v1.55h1.75v1.09h-1.75v2.77c0,.76.4,1.02,1.16,1.02.18,0,.43-.02.78-.06Zm.73.06l.72-.79c.52.54,1.03.84,1.66.84.54,0,.95-.23.95-.66,0-.35-.25-.49-.83-.73l-.6-.25c-1.04-.43-1.54-.89-1.54-1.72,0-1.06.88-1.7,2.08-1.7.85,0,1.52.3,2.04.91l-.68.78c-.37-.38-.86-.6-1.38-.6s-.8.19-.8.56c0,.3.2.46.78.7l.56.23c1.12.47,1.61.95,1.61,1.78,0,.56-.2,1.01-.62,1.33-.42.31-.94.47-1.56.47-1.01,0-1.85-.46-2.38-1.14Z"/>
</svg>